<?xml version="1.0" encoding="UTF-8"?>
<svg id="Capa_1" data-name="Capa 1" xmlns="http://www.w3.org/2000/svg" viewBox="0 0 1920 1080">
  <defs>
    <style>
      .cls-1 {
        fill: snow;
        stroke-width: 0px;
      }
    </style>
  </defs>
  <g>
    <path class="cls-1" d="M439.48,402.71h-113.07c-15.61,0-28.27,12.66-28.27,28.27v226.15c0,15.61,12.66,28.27,28.27,28.27h113.07c15.61,0,28.27-12.66,28.27-28.27v-226.15c0-15.61-12.66-28.27-28.27-28.27ZM411.21,515.78v113.07h-56.54v-169.61h56.54v56.54Z"/>
    <path class="cls-1" d="M1225.49,402.71h-113.07c-15.61,0-28.27,12.66-28.27,28.27v226.15c0,15.61,12.66,28.27,28.27,28.27h113.07c15.61,0,28.27-12.66,28.27-28.27v-226.15c0-15.61-12.66-28.27-28.27-28.27ZM1197.22,515.78v113.07h-56.54v-169.61h56.54v56.54Z"/>
    <rect class="cls-1" x="1760.75" y="628.86" width="56.54" height="56.54"/>
    <path class="cls-1" d="M1706.05,402.71h-113.07c-15.61,0-28.27,12.66-28.27,28.27v226.15c0,15.61,12.66,28.27,28.27,28.27h113.07c15.61,0,28.27-12.66,28.27-28.27v-226.15c0-15.61-12.66-28.27-28.27-28.27ZM1677.79,515.78v113.07h-56.54v-169.61h56.54v56.54Z"/>
    <path class="cls-1" d="M244.05,402.71H102.71v282.68h56.54v-113.07h84.81c15.61,0,28.27-12.66,28.27-28.27v-113.07c0-15.61-12.66-28.27-28.27-28.27ZM215.78,515.78h-56.54v-56.54h56.54v56.54Z"/>
    <polygon class="cls-1" points="803.3 402.71 746.76 402.71 690.23 402.71 690.23 459.25 746.76 459.25 746.76 515.78 746.76 572.32 746.76 628.86 746.76 685.39 803.3 685.39 803.3 628.86 803.3 572.32 803.3 515.78 803.3 459.25 859.84 459.25 859.84 402.71 803.3 402.71"/>
    <polygon class="cls-1" points="1479.91 402.71 1479.91 459.25 1479.91 515.78 1479.91 572.32 1479.91 628.86 1479.91 685.39 1536.44 685.39 1536.44 628.86 1536.44 572.32 1536.44 515.78 1536.44 459.25 1536.44 402.71 1479.91 402.71"/>
    <polygon class="cls-1" points="1395.1 628.86 1338.56 628.86 1338.56 572.32 1338.56 515.78 1338.56 459.25 1338.56 402.71 1282.03 402.71 1282.03 459.25 1282.03 515.78 1282.03 572.32 1282.03 628.86 1282.03 685.39 1338.56 685.39 1395.1 685.39 1451.64 685.39 1451.64 628.86 1395.1 628.86"/>
    <polygon class="cls-1" points="999.34 459.25 1055.88 459.25 1055.88 402.71 999.34 402.71 942.81 402.71 886.27 402.71 886.27 459.25 886.27 515.78 886.27 572.32 886.27 628.86 886.27 685.39 942.81 685.39 942.81 628.86 942.81 572.32 999.34 572.32 1055.88 572.32 1055.88 515.78 999.34 515.78 942.81 515.78 942.81 459.25 999.34 459.25"/>
    <path class="cls-1" d="M638.58,402.71h-141.34v282.68h56.54v-113.07h56.54v113.07h56.54v-141.34c0-15.61-12.66-28.27-28.27-28.27,15.61,0,28.27-12.66,28.27-28.27v-56.54c0-15.61-12.66-28.27-28.27-28.27ZM610.32,515.78h-56.54v-56.54h56.54v56.54Z"/>
  </g>
  <g>
    <path class="cls-1" d="M102.79,377.7v-47.6h17.41c4.76,0,8.51,1.1,11.25,3.3,2.74,2.2,4.11,5.16,4.11,8.87,0,1.9-.4,3.75-1.19,5.54-.79,1.79-2.02,3.26-3.67,4.42-1.66,1.16-3.82,1.73-6.49,1.73l.14-1.29c2.81,0,5.18.54,7.11,1.63,1.93,1.09,3.39,2.53,4.39,4.32,1,1.79,1.5,3.75,1.5,5.88,0,3.99-1.42,7.19-4.25,9.59-2.83,2.4-6.81,3.6-11.93,3.6h-18.36ZM110.95,373.69l-3.33-2.86h12.17c2.9,0,5.11-.65,6.63-1.94,1.52-1.29,2.28-3,2.28-5.13,0-1.36-.32-2.57-.95-3.64-.64-1.06-1.55-1.91-2.75-2.55-1.2-.63-2.66-.95-4.39-.95h-12.44v-6.6h11.36c2.4,0,4.27-.6,5.61-1.8,1.34-1.2,2.01-2.82,2.01-4.86s-.7-3.5-2.11-4.66c-1.41-1.16-3.36-1.73-5.85-1.73h-11.56l3.33-2.86v39.58Z"/>
    <path class="cls-1" d="M146.92,377.7v-29.99l3.47,3.54h-9.52v-6.66h13.87v33.12h-7.82ZM146.51,337.99v-9.04h8.7v9.04h-8.7Z"/>
    <path class="cls-1" d="M178.47,378.38c-3.31,0-6.22-.71-8.74-2.14-2.52-1.43-4.48-3.42-5.88-5.98-1.41-2.56-2.11-5.54-2.11-8.94v-.68c0-3.17.66-6.02,1.97-8.53,1.31-2.52,3.16-4.51,5.54-5.98,2.38-1.47,5.13-2.21,8.26-2.21,3.35,0,6.2.81,8.53,2.41,2.33,1.61,4.05,3.89,5.13,6.83,1.09,2.95,1.38,6.42.88,10.4h-24.68v-5.58h20.54l-3.47,2.86c.32-2.27.21-4.18-.31-5.75-.52-1.56-1.35-2.76-2.48-3.6-1.13-.84-2.49-1.26-4.08-1.26-1.77,0-3.25.45-4.45,1.36-1.2.91-2.11,2.13-2.72,3.67-.61,1.54-.92,3.33-.92,5.37v1.36c0,1.86.36,3.51,1.09,4.96.72,1.45,1.79,2.58,3.2,3.4,1.4.82,3.1,1.22,5.1,1.22,1.68,0,3.09-.24,4.25-.71,1.16-.48,2.21-1.14,3.16-2.01l4.42,4.62c-1.32,1.63-3.03,2.86-5.13,3.67s-4.48,1.22-7.11,1.22Z"/>
    <path class="cls-1" d="M199.14,377.7v-33.12h7.55v9.11h-2.11c.5-1.99,1.2-3.63,2.11-4.9.91-1.27,1.94-2.25,3.09-2.96,1.16-.7,2.35-1.2,3.57-1.5,1.22-.29,2.33-.44,3.33-.44,3.72,0,6.7,1.21,8.94,3.64,2.24,2.43,3.37,5.91,3.37,10.44v19.72h-7.82v-18.43c0-2.9-.61-5-1.84-6.29s-2.83-1.94-4.83-1.94c-1.41,0-2.69.32-3.84.95-1.16.64-2.06,1.58-2.72,2.82-.66,1.25-.99,2.78-.99,4.59v18.29h-7.82Z"/>
    <path class="cls-1" d="M245.59,377.7l-12.78-33.12h8.16l10.27,27.95h-3.06l10.2-27.95h8.16l-12.65,33.12h-8.3Z"/>
    <path class="cls-1" d="M285.5,378.38c-3.31,0-6.22-.71-8.74-2.14-2.52-1.43-4.48-3.42-5.88-5.98-1.41-2.56-2.11-5.54-2.11-8.94v-.68c0-3.17.66-6.02,1.97-8.53,1.31-2.52,3.16-4.51,5.54-5.98,2.38-1.47,5.13-2.21,8.26-2.21,3.35,0,6.2.81,8.53,2.41,2.33,1.61,4.05,3.89,5.13,6.83,1.09,2.95,1.38,6.42.88,10.4h-24.68v-5.58h20.54l-3.47,2.86c.32-2.27.21-4.18-.31-5.75-.52-1.56-1.35-2.76-2.48-3.6-1.13-.84-2.49-1.26-4.08-1.26-1.77,0-3.25.45-4.45,1.36-1.2.91-2.11,2.13-2.72,3.67-.61,1.54-.92,3.33-.92,5.37v1.36c0,1.86.36,3.51,1.09,4.96.72,1.45,1.79,2.58,3.2,3.4,1.4.82,3.1,1.22,5.1,1.22,1.68,0,3.09-.24,4.25-.71,1.16-.48,2.21-1.14,3.16-2.01l4.42,4.62c-1.32,1.63-3.03,2.86-5.13,3.67s-4.48,1.22-7.11,1.22Z"/>
    <path class="cls-1" d="M306.17,377.7v-33.12h7.55v9.11h-2.11c.5-1.99,1.2-3.63,2.11-4.9.91-1.27,1.94-2.25,3.09-2.96,1.16-.7,2.35-1.2,3.57-1.5,1.22-.29,2.33-.44,3.33-.44,3.72,0,6.7,1.21,8.94,3.64,2.24,2.43,3.37,5.91,3.37,10.44v19.72h-7.82v-18.43c0-2.9-.61-5-1.84-6.29s-2.83-1.94-4.83-1.94c-1.41,0-2.69.32-3.84.95-1.16.64-2.06,1.58-2.72,2.82-.66,1.25-.99,2.78-.99,4.59v18.29h-7.82Z"/>
    <path class="cls-1" d="M347.11,377.7v-29.99l3.47,3.54h-9.52v-6.66h13.87v33.12h-7.82ZM346.7,337.99v-9.04h8.7v9.04h-8.7Z"/>
    <path class="cls-1" d="M377.57,378.38c-2.99,0-5.67-.7-8.02-2.11-2.36-1.4-4.22-3.38-5.58-5.92-1.36-2.54-2.04-5.51-2.04-8.91v-.68c0-3.35.69-6.3,2.07-8.84,1.38-2.54,3.26-4.51,5.64-5.92,2.38-1.4,5.04-2.11,7.99-2.11,2.54,0,4.8.58,6.8,1.73,1.99,1.16,3.6,2.73,4.83,4.73l-1.56,1.84v-24.14h7.82v49.64h-7.07v-8.36l1.5,1.56c-1.27,2.36-2.97,4.19-5.1,5.51-2.13,1.31-4.56,1.97-7.28,1.97ZM378.8,371.51c1.81,0,3.42-.42,4.83-1.26,1.4-.84,2.52-2.03,3.33-3.57.82-1.54,1.22-3.38,1.22-5.51s-.41-4.03-1.22-5.58c-.82-1.54-1.93-2.72-3.33-3.54-1.41-.82-3.02-1.22-4.83-1.22-1.68,0-3.2.4-4.56,1.19-1.36.79-2.45,1.93-3.26,3.4-.82,1.47-1.22,3.25-1.22,5.34v.68c0,2.04.41,3.82,1.22,5.34.82,1.52,1.9,2.69,3.26,3.5,1.36.82,2.88,1.22,4.56,1.22Z"/>
    <path class="cls-1" d="M419.53,378.38c-3.22,0-6.12-.72-8.7-2.18-2.58-1.45-4.62-3.46-6.12-6.02-1.5-2.56-2.24-5.5-2.24-8.81v-.61c0-3.31.75-6.23,2.24-8.77,1.5-2.54,3.54-4.52,6.12-5.95,2.58-1.43,5.48-2.14,8.7-2.14s6.16.71,8.7,2.14c2.54,1.43,4.56,3.4,6.05,5.92,1.5,2.52,2.24,5.43,2.24,8.74v.68c0,3.31-.75,6.25-2.24,8.81-1.5,2.56-3.51,4.57-6.05,6.02-2.54,1.45-5.44,2.18-8.7,2.18ZM419.53,371.51c1.81,0,3.41-.43,4.79-1.29,1.38-.86,2.46-2.06,3.23-3.6.77-1.54,1.16-3.29,1.16-5.24v-.68c0-1.95-.39-3.66-1.16-5.13-.77-1.47-1.85-2.63-3.23-3.47-1.38-.84-2.98-1.26-4.79-1.26s-3.34.42-4.73,1.26c-1.38.84-2.47,2.01-3.26,3.5-.79,1.5-1.19,3.22-1.19,5.17v.61c0,1.95.4,3.7,1.19,5.24.79,1.54,1.88,2.74,3.26,3.6,1.38.86,2.96,1.29,4.73,1.29Z"/>
    <path class="cls-1" d="M468.76,378.38c-3.76,0-6.78-.91-9.04-2.72-2.27-1.81-3.4-4.17-3.4-7.07,0-1.95.52-3.69,1.56-5.24,1.04-1.54,2.57-2.76,4.59-3.67,2.02-.91,4.48-1.36,7.38-1.36,3.94,0,6.92.87,8.94,2.62,2.02,1.75,3.03,4.05,3.03,6.9h-2.04c0,3.36-.91,5.95-2.72,7.79-1.81,1.84-4.58,2.75-8.3,2.75ZM478.21,377.7v-11.15l-.95-2.86v-7c0-2.08-.58-3.59-1.73-4.52-1.16-.93-2.75-1.39-4.79-1.39-1.59,0-3.29.32-5.1.95-1.81.64-3.4,1.54-4.76,2.72l-3.54-5.3c1.54-1.59,3.55-2.86,6.02-3.81,2.47-.95,5.09-1.43,7.85-1.43s5.11.48,7.17,1.43c2.06.95,3.68,2.35,4.86,4.18,1.18,1.84,1.77,4.11,1.77,6.83v10.68c0,1.81.01,3.59.03,5.34.02,1.75.08,3.53.17,5.34h-7ZM470.73,372.6c1.99,0,3.58-.4,4.76-1.19,1.18-.79,1.77-1.87,1.77-3.23s-.59-2.37-1.77-3.16c-1.18-.79-2.77-1.19-4.76-1.19s-3.53.4-4.73,1.19c-1.2.79-1.8,1.85-1.8,3.16s.6,2.44,1.8,3.23c1.2.79,2.78,1.19,4.73,1.19Z"/>
    <path class="cls-1" d="M508.88,377.7v-33.12h7.48v9.04l-2.11-.07c.63-2.58,1.61-4.57,2.92-5.95,1.31-1.38,2.75-2.35,4.32-2.89s3.07-.82,4.52-.82c2.76,0,5.11.73,7.04,2.18,1.93,1.45,3.25,3.65,3.98,6.6h-2.99c.82-2.36,1.97-4.17,3.47-5.44,1.5-1.27,3.06-2.14,4.69-2.62s3.08-.71,4.35-.71c3.58,0,6.5,1.15,8.77,3.43,2.27,2.29,3.4,5.7,3.4,10.23v20.13h-7.75v-18.97c0-2.67-.58-4.62-1.73-5.85-1.16-1.22-2.71-1.84-4.66-1.84s-3.64.67-4.93,2.01c-1.29,1.34-1.94,3.23-1.94,5.68v18.97h-7.82v-18.97c0-2.67-.58-4.62-1.73-5.85-1.16-1.22-2.69-1.84-4.59-1.84s-3.59.67-4.93,2.01c-1.34,1.34-2.01,3.23-2.01,5.68v18.97h-7.75Z"/>
    <path class="cls-1" d="M569.81,377.7v-29.99l3.47,3.54h-9.52v-6.66h13.87v33.12h-7.82ZM569.4,337.99v-9.04h8.7v9.04h-8.7Z"/>
  </g>
  <g>
    <path class="cls-1" d="M1658.31,752.64v-6.12l16.73-16.86c1.36-1.36,2.42-2.62,3.2-3.77.77-1.16,1.34-2.28,1.7-3.37s.54-2.15.54-3.2c0-2.18-.67-3.91-2.01-5.2-1.34-1.29-3.14-1.94-5.41-1.94-2,0-3.82.54-5.47,1.63s-3.21,2.65-4.66,4.69l-5.3-5.24c1.81-2.76,4.06-4.94,6.73-6.53,2.67-1.59,5.67-2.38,8.98-2.38,3.08,0,5.79.6,8.13,1.8,2.33,1.2,4.16,2.86,5.47,4.96,1.31,2.11,1.97,4.55,1.97,7.31,0,1.68-.27,3.37-.82,5.07-.54,1.7-1.39,3.45-2.55,5.24-1.16,1.79-2.73,3.68-4.73,5.68l-12.92,12.99-.41-2.18h23.39v7.41h-32.57Z"/>
    <path class="cls-1" d="M1715.29,753.32c-3.72,0-6.91-.95-9.59-2.86-2.67-1.9-4.73-4.68-6.15-8.33-1.43-3.65-2.14-8.06-2.14-13.23s.71-9.59,2.14-13.26c1.43-3.67,3.48-6.47,6.15-8.4,2.67-1.93,5.87-2.89,9.59-2.89s6.98.96,9.66,2.89c2.67,1.93,4.71,4.73,6.12,8.4,1.41,3.67,2.11,8.09,2.11,13.26s-.7,9.58-2.11,13.23c-1.41,3.65-3.45,6.43-6.12,8.33-2.67,1.9-5.89,2.86-9.66,2.86ZM1715.29,745.84c2.09,0,3.83-.63,5.24-1.9,1.4-1.27,2.48-3.16,3.23-5.68.75-2.52,1.12-5.63,1.12-9.35s-.37-6.9-1.12-9.42-1.83-4.42-3.23-5.71c-1.41-1.29-3.15-1.94-5.24-1.94s-3.77.65-5.2,1.94-2.52,3.2-3.26,5.71-1.12,5.66-1.12,9.42.38,6.83,1.12,9.35c.75,2.52,1.84,4.41,3.26,5.68,1.43,1.27,3.16,1.9,5.2,1.9Z"/>
    <path class="cls-1" d="M1739.91,752.64v-6.12l16.73-16.86c1.36-1.36,2.42-2.62,3.2-3.77.77-1.16,1.34-2.28,1.7-3.37.36-1.09.54-2.15.54-3.2,0-2.18-.67-3.91-2.01-5.2-1.34-1.29-3.14-1.94-5.41-1.94-2,0-3.82.54-5.47,1.63-1.66,1.09-3.21,2.65-4.66,4.69l-5.3-5.24c1.81-2.76,4.06-4.94,6.73-6.53,2.67-1.59,5.67-2.38,8.98-2.38,3.08,0,5.79.6,8.12,1.8,2.33,1.2,4.16,2.86,5.47,4.96,1.31,2.11,1.97,4.55,1.97,7.31,0,1.68-.27,3.37-.82,5.07-.54,1.7-1.39,3.45-2.55,5.24-1.16,1.79-2.73,3.68-4.73,5.68l-12.92,12.99-.41-2.18h23.39v7.41h-32.57Z"/>
    <path class="cls-1" d="M1779.01,741.89v-6.8l14.69-30.06h8.23l-15.16,31.96-1.9-2.38h30.26v7.28h-36.11ZM1800.43,752.64v-30.06h7.96v30.06h-7.96Z"/>
  </g>
</svg>