<?xml version="1.0" encoding="UTF-8"?>
<svg id="Capa_2" data-name="Capa 2" xmlns="http://www.w3.org/2000/svg" viewBox="0 0 2802.98 462.13">
  <defs>
    <style>
      .cls-1 {
        fill: #fff;
        stroke-width: 0px;
      }
    </style>
  </defs>
  <g id="Capa_1-2" data-name="Capa 1">
    <path class="cls-1" d="M550.55,0h-184.85c-25.52,0-46.21,20.69-46.21,46.21v369.7c0,25.52,20.69,46.21,46.21,46.21h184.85c25.52,0,46.21-20.69,46.21-46.21V46.21c0-25.52-20.69-46.21-46.21-46.21ZM504.34,184.85v184.85h-92.43V92.43h92.43v92.43Z"/>
    <path class="cls-1" d="M1835.51,0h-184.85c-25.52,0-46.21,20.69-46.21,46.21v369.7c0,25.52,20.69,46.21,46.21,46.21h184.85c25.52,0,46.21-20.69,46.21-46.21V46.21c0-25.52-20.69-46.21-46.21-46.21ZM1789.3,184.85v184.85h-92.43V92.43h92.43v92.43Z"/>
    <rect class="cls-1" x="2710.55" y="369.7" width="92.43" height="92.43"/>
    <path class="cls-1" d="M2621.13,0h-184.85c-25.52,0-46.21,20.69-46.21,46.21v369.7c0,25.52,20.69,46.21,46.21,46.21h184.85c25.52,0,46.21-20.69,46.21-46.21V46.21c0-25.52-20.69-46.21-46.21-46.21ZM2574.91,184.85v184.85h-92.43V92.43h92.43v92.43Z"/>
    <path class="cls-1" d="M231.06,0H0v462.13h92.43v-184.85h138.64c25.52,0,46.21-20.69,46.21-46.21V46.21c0-25.52-20.69-46.21-46.21-46.21ZM184.85,184.85h-92.43v-92.43h92.43v92.43Z"/>
    <polygon class="cls-1" points="1145.32 0 1052.89 0 960.47 0 960.47 92.43 1052.89 92.43 1052.89 184.85 1052.89 277.28 1052.89 369.7 1052.89 462.13 1145.32 462.13 1145.32 369.7 1145.32 277.28 1145.32 184.85 1145.32 92.43 1237.74 92.43 1237.74 0 1145.32 0"/>
    <polygon class="cls-1" points="2251.42 0 2251.42 92.43 2251.42 184.85 2251.42 277.28 2251.42 369.7 2251.42 462.13 2343.85 462.13 2343.85 369.7 2343.85 277.28 2343.85 184.85 2343.85 92.43 2343.85 0 2251.42 0"/>
    <polygon class="cls-1" points="2112.79 369.7 2020.36 369.7 2020.36 277.28 2020.36 184.85 2020.36 92.43 2020.36 0 1927.93 0 1927.93 92.43 1927.93 184.85 1927.93 277.28 1927.93 369.7 1927.93 462.13 2020.36 462.13 2112.79 462.13 2205.21 462.13 2205.21 369.7 2112.79 369.7"/>
    <polygon class="cls-1" points="1465.81 92.43 1558.23 92.43 1558.23 0 1465.81 0 1373.38 0 1280.96 0 1280.96 92.43 1280.96 184.85 1280.96 277.28 1280.96 369.7 1280.96 462.13 1373.38 462.13 1373.38 369.7 1373.38 277.28 1465.81 277.28 1558.23 277.28 1558.23 184.85 1465.81 184.85 1373.38 184.85 1373.38 92.43 1465.81 92.43"/>
    <path class="cls-1" d="M876.04,0h-231.06v462.13h92.43v-184.85h92.43v184.85h92.43v-231.06c0-25.52-20.69-46.21-46.21-46.21,25.52,0,46.21-20.69,46.21-46.21V46.21c0-25.52-20.69-46.21-46.21-46.21ZM829.83,184.85h-92.43v-92.43h92.43v92.43Z"/>
  </g>
</svg>